<svg xmlns="http://www.w3.org/2000/svg" xmlns:xlink="http://www.w3.org/1999/xlink" width="16" height="16" viewBox="0 0 16 16"><defs><style>.cls-1{fill:none}.cls-2{clip-path:url(#clip-path)}.cls-3{fill:transparent}.cls-4{clip-path:url(#clip-path-2)}.cls-5{fill:#f3f}</style><clipPath id="clip-path"><path id="路径_610" d="M0,0H16V-16H0Z" class="cls-1" data-name="路径 610"/></clipPath><clipPath id="clip-path-2"><path id="路径_612" d="M13.75-2.937H2.25a.5.5,0,0,0-.5.5v.563a.125.125,0,0,0,.125.125h12.25a.125.125,0,0,0,.125-.125v-.562A.5.5,0,0,0,13.75-2.937ZM4.027-4.25a.632.632,0,0,0,.094-.008l2.628-.461a.153.153,0,0,0,.083-.044l6.623-6.623a.156.156,0,0,0,0-.22l-2.6-2.6a.155.155,0,0,0-.111-.045.155.155,0,0,0-.111.045L4.012-7.581a.159.159,0,0,0-.044.083L3.508-4.87a.524.524,0,0,0,.147.466.529.529,0,0,0,.372.155Z" class="cls-1" data-name="路径 612"/></clipPath></defs><g id="icon_canvasEdit2" transform="translate(0 16)"><g id="组_1041" class="cls-2" data-name="组 1041"><path id="路径_609" d="M-5-21H21V5H-5Z" class="cls-3" data-name="路径 609"/></g><g id="组_1042" class="cls-4" data-name="组 1042"><path id="路径_611" d="M-3.25-19.25h22.5V3.25H-3.25Z" class="cls-5" data-name="路径 611"/></g></g></svg>